<svg height="512pt" fill="#7f338b" viewBox="0 0 512.04876 512" width="512pt" xmlns="http://www.w3.org/2000/svg"><path d="m451.523438 104.046875c-1.839844 1.332031-3.074219 3.339844-3.429688 5.582031-.355469 2.238282.195312 4.53125 1.535156 6.363282 52.605469 72.730468 60.011719 168.804687 19.175782 248.734374-40.835938 79.933594-123.023438 130.234376-212.78125 130.234376-58.214844.214843-114.464844-21.054688-157.976563-59.734376h29.976563c4.714843 0 8.535156-3.820312 8.535156-8.535156 0-4.710937-3.820313-8.53125-8.535156-8.53125h-51.199219c-.421875.050782-.835938.132813-1.246094.246094-.644531.058594-1.285156.1875-1.902344.382812-.65625.304688-1.269531.691407-1.828125 1.152344-.3125.171875-.621094.363282-.910156.574219l-.050781.074219c-.554688.597656-1.023438 1.265625-1.390625 1.988281-.148438.265625-.394532.480469-.515625.753906-.117188.273438-.109375.628907-.203125.9375-.265625.75-.429688 1.535157-.484375 2.328125v51.296875c0 4.710938 3.820312 8.53125 8.53125 8.53125 4.714843 0 8.535156-3.820312 8.535156-8.53125v-31.140625c46.785156 42.230469 107.636719 65.503906 170.664063 65.273438 96.183593.007812 184.253906-53.894532 228.003906-139.550782 43.753906-85.65625 35.800781-188.605468-20.582032-266.527343-1.328124-1.832031-3.332031-3.0625-5.566406-3.421875-2.238281-.355469-4.523437.191406-6.355468 1.519531zm0 0"/><path d="m17.089844 256.027344c.152344-131.898438 107.039062-238.785156 238.933594-238.933594 58.21875-.214844 114.472656 21.054688 157.988281 59.730469h-29.988281c-4.710938 0-8.53125 3.824219-8.53125 8.535156s3.820312 8.535156 8.53125 8.535156h51.199218c.433594-.050781.855469-.136719 1.273438-.257812.636718-.050781 1.269531-.179688 1.878906-.375.683594-.3125 1.320312-.714844 1.894531-1.203125.292969-.15625.578125-.328125.851563-.519532l.050781-.078124c.59375-.617188 1.089844-1.320313 1.46875-2.089844.128906-.230469.332031-.410156.433594-.648438.097656-.332031.171875-.667968.222656-1.007812.257813-.730469.414063-1.488282.460937-2.261719v-51.292969c0-4.714844-3.820312-8.535156-8.535156-8.535156-4.710937 0-8.53125 3.820312-8.53125 8.535156v31.136719c-46.789062-42.226563-107.640625-65.5-170.667968-65.2695312-96.179688-.0117188-184.25 53.8945312-228.003907 139.5468752-43.75 85.65625-35.800781 188.605469 20.585938 266.527343 2.765625 3.816407 8.101562 4.667969 11.921875 1.902344 3.816406-2.765625 4.667968-8.101562 1.902344-11.921875-29.589844-40.691406-45.46875-89.742187-45.339844-140.054687zm0 0"/><path d="m264.558594 51.226562v-8.535156c0-4.710937-3.820313-8.53125-8.535156-8.53125-4.710938 0-8.53125 3.820313-8.53125 8.53125v8.535156c0 4.710938 3.820312 8.53125 8.53125 8.53125 4.714843 0 8.535156-3.820312 8.535156-8.53125zm0 0"/><path d="m256.023438 477.894531c4.714843 0 8.535156-3.824219 8.535156-8.535156v-8.535156c0-4.710938-3.820313-8.53125-8.535156-8.53125-4.710938 0-8.53125 3.820312-8.53125 8.53125v8.535156c0 4.710937 3.820312 8.535156 8.53125 8.535156zm0 0"/><path d="m220.457031 62.867188c.5-.003907.996094-.046876 1.484375-.128907 2.230469-.394531 4.210938-1.65625 5.511719-3.511719 1.296875-1.855468 1.804687-4.148437 1.410156-6.378906l-1.476562-8.398437c-.820313-4.640625-5.25-7.738281-9.890625-6.917969s-7.742188 5.246094-6.921875 9.890625l1.488281 8.394531c.71875 4.074219 4.257812 7.046875 8.394531 7.050782zm0 0"/><path d="m290.105469 449.316406c-2.226563.390625-4.210938 1.65625-5.507813 3.507813-1.296875 1.855469-1.804687 4.152343-1.410156 6.378906l1.476562 8.398437c.71875 4.074219 4.257813 7.046876 8.394532 7.046876.5.003906 1-.042969 1.492187-.136719 4.640625-.816407 7.738281-5.242188 6.921875-9.878907l-1.484375-8.398437c-.820312-4.636719-5.242187-7.734375-9.882812-6.917969zm0 0"/><path d="m185.984375 72.105469c2.78125 0 5.390625-1.359375 6.984375-3.640625 1.59375-2.277344 1.980469-5.195313 1.027344-7.808594l-2.910156-8.015625c-1.042969-2.863281-3.535157-4.957031-6.539063-5.484375-3.003906-.53125-6.058594.582031-8.019531 2.917969-1.960938 2.335937-2.527344 5.539062-1.484375 8.40625l2.917969 8.011719c1.226562 3.371093 4.433593 5.617187 8.023437 5.613281zm0 0"/><path d="m320.964844 459.410156c1.039062 2.863282 3.53125 4.957032 6.535156 5.488282 3.003906.527343 6.0625-.585938 8.023438-2.917969 1.960937-2.335938 2.523437-5.542969 1.480468-8.40625l-2.917968-8.015625c-1-2.921875-3.5-5.074219-6.535157-5.628906-3.039062-.554688-6.140625.570312-8.109375 2.949218s-2.5 5.636719-1.386718 8.519532zm0 0"/><path d="m146.234375 82.9375c1.511719 2.660156 4.335937 4.308594 7.398437 4.3125 3.0625.007812 5.894532-1.625 7.417969-4.28125 1.527344-2.65625 1.511719-5.925781-.035156-8.566406l-4.269531-7.390625c-1.511719-2.660157-4.335938-4.308594-7.398438-4.316407-3.0625-.003906-5.894531 1.628907-7.417968 4.285157-1.523438 2.65625-1.511719 5.925781.039062 8.566406zm0 0"/><path d="m354.15625 425.992188c-4.078125 2.355468-5.476562 7.574218-3.121094 11.65625l4.265625 7.390624c1.515625 2.664063 4.335938 4.308594 7.398438 4.316407 3.0625.007812 5.894531-1.628907 7.417969-4.285157 1.527343-2.652343 1.511718-5.921874-.035157-8.5625l-4.269531-7.390624c-2.355469-4.082032-7.574219-5.480469-11.65625-3.125zm0 0"/><path d="m113.414062 86.058594c-1.734374 1.453125-2.820312 3.539062-3.019531 5.792968-.199219 2.253907.507813 4.496094 1.960938 6.230469l5.488281 6.546875c1.9375 2.40625 5.023438 3.582032 8.074219 3.066406 3.046875-.515624 5.578125-2.636718 6.617187-5.550781 1.035156-2.910156.417969-6.15625-1.617187-8.480469l-5.488281-6.546874c-3.027344-3.609376-8.402344-4.082032-12.015626-1.058594zm0 0"/><path d="m382.179688 406.367188c-1.730469 1.453124-2.816407 3.539062-3.015626 5.792968-.195312 2.253906.511719 4.496094 1.96875 6.230469l5.484376 6.542969c1.9375 2.410156 5.027343 3.585937 8.074218 3.070312s5.578125-2.640625 6.617188-5.550781c1.035156-2.910156.417968-6.15625-1.617188-8.484375l-5.488281-6.542969c-1.453125-1.738281-3.535156-2.824219-5.789063-3.019531-2.257812-.199219-4.5.503906-6.234374 1.960938zm0 0"/><path d="m104.625 117.855469-6.535156-5.488281c-3.617188-3.03125-9.007813-2.554688-12.035156 1.0625-3.03125 3.617187-2.554688 9.007812 1.0625 12.035156l6.535156 5.488281c2.324218 2.046875 5.574218 2.675781 8.492187 1.640625s5.046875-3.570312 5.5625-6.625c.515625-3.050781-.664062-6.144531-3.082031-8.082031zm0 0"/><path d="m407.421875 394.207031 6.546875 5.484375c2.339844 1.960938 5.550781 2.519532 8.414062 1.472656 2.867188-1.046874 4.957032-3.546874 5.484376-6.554687.527343-3.003906-.59375-6.066406-2.933594-8.023437l-6.546875-5.488282c-3.609375-3.027344-8.992188-2.554687-12.023438 1.058594-3.027343 3.613281-2.554687 8.996094 1.058594 12.023438zm0 0"/><path d="m78.652344 162.160156c3.859375 0 7.242187-2.59375 8.242187-6.324218.996094-3.730469-.632812-7.667969-3.976562-9.601563l-7.390625-4.265625c-4.078125-2.316406-9.261719-.910156-11.609375 3.152344-2.34375 4.0625-.96875 9.253906 3.074219 11.628906l7.390624 4.265625c1.296876.75 2.769532 1.144531 4.269532 1.144531zm0 0"/><path d="m436.503906 370.082031c2.640625 1.550781 5.910156 1.5625 8.566406.039063 2.65625-1.527344 4.289063-4.355469 4.28125-7.417969-.003906-3.0625-1.652343-5.886719-4.3125-7.398437l-7.390624-4.269532c-2.640626-1.546875-5.910157-1.5625-8.566407-.035156-2.65625 1.523438-4.289062 4.355469-4.28125 7.417969.003907 3.0625 1.652344 5.882812 4.3125 7.398437zm0 0"/><path d="m66.5 177.972656-8.015625-2.929687c-2.863281-1.042969-6.066406-.480469-8.40625 1.476562-2.335937 1.957031-3.453125 5.011719-2.925781 8.015625s2.617187 5.496094 5.480468 6.542969l8.011719 2.917969c2.882813 1.136718 6.15625.621094 8.550781-1.347656 2.394532-1.972657 3.53125-5.085938 2.972657-8.132813-.5625-3.046875-2.730469-5.554687-5.667969-6.542969zm0 0"/><path d="m456.488281 337.527344c4.148438.007812 7.699219-2.964844 8.417969-7.046875.722656-4.082031-1.59375-8.09375-5.488281-9.507813l-8.015625-2.917968c-2.882813-1.136719-6.15625-.621094-8.550782 1.351562-2.390624 1.96875-3.527343 5.082031-2.96875 8.128906.558594 3.050782 2.730469 5.554688 5.667969 6.546875l8.011719 2.925781c.9375.339844 1.929688.515626 2.925781.519532zm0 0"/><path d="m52.863281 228.863281c.488281.085938.988281.128907 1.484375.128907 4.425782-.003907 8.113282-3.386719 8.496094-7.796876.382812-4.410156-2.667969-8.378906-7.027344-9.140624l-8.40625-1.476563c-3.003906-.527344-6.0625.585937-8.019531 2.925781-1.960937 2.339844-2.523437 5.542969-1.476563 8.410156 1.042969 2.863282 3.539063 4.957032 6.542969 5.484376zm0 0"/><path d="m474.519531 294.546875c.394531-2.230469-.113281-4.527344-1.414062-6.382813-1.300781-1.855468-3.28125-3.117187-5.515625-3.507812l-8.394532-1.46875c-4.644531-.816406-9.066406 2.285156-9.882812 6.929688-.816406 4.640624 2.289062 9.066406 6.929688 9.882812l8.398437 1.472656c.488281.085938.984375.128906 1.484375.128906 4.140625-.003906 7.679688-2.976562 8.394531-7.054687zm0 0"/><path d="m34.15625 256.027344c0 4.710937 3.820312 8.53125 8.535156 8.53125h8.53125c4.714844 0 8.535156-3.820313 8.535156-8.53125 0-4.714844-3.820312-8.535156-8.535156-8.535156h-8.53125c-4.714844 0-8.535156 3.820312-8.535156 8.535156zm0 0"/><path d="m477.890625 256.027344c0-4.714844-3.820313-8.535156-8.53125-8.535156h-8.535156c-4.710938 0-8.53125 3.820312-8.53125 8.535156 0 4.710937 3.820312 8.53125 8.53125 8.53125h8.535156c4.710937 0 8.53125-3.820313 8.53125-8.53125zm0 0"/><path d="m45.925781 301.601562c.496094 0 .992188-.042968 1.484375-.128906l8.40625-1.472656c4.640625-.816406 7.742188-5.242188 6.929688-9.882812-.816406-4.644532-5.242188-7.746094-9.882813-6.929688l-8.40625 1.46875c-4.382812.738281-7.460937 4.722656-7.078125 9.148438.382813 4.429687 4.101563 7.820312 8.546875 7.796874zm0 0"/><path d="m464.640625 210.578125-8.398437 1.476563c-4.359376.761718-7.410157 4.730468-7.027344 9.140624.378906 4.410157 4.070312 7.792969 8.496094 7.796876.496093 0 .992187-.042969 1.484374-.128907l8.394532-1.464843c3.007812-.527344 5.5-2.621094 6.546875-5.484376 1.042969-2.867187.480469-6.070312-1.476563-8.410156-1.960937-2.339844-5.015625-3.453125-8.019531-2.925781zm0 0"/><path d="m55.558594 337.527344c1-.003906 1.988281-.179688 2.925781-.519532l8.015625-2.925781c2.863281-1.054687 4.945312-3.550781 5.464844-6.558593.523437-3.003907-.601563-6.058594-2.941406-8.011719-2.34375-1.953125-5.550782-2.507813-8.414063-1.457031l-8.011719 2.917968c-3.894531 1.414063-6.210937 5.425782-5.492187 9.507813.722656 4.082031 4.273437 7.054687 8.417969 7.046875zm0 0"/><path d="m453.5625 175.042969-8.011719 2.929687c-2.9375.988282-5.109375 3.496094-5.667969 6.542969-.558593 3.046875.578126 6.160156 2.96875 8.132813 2.394532 1.96875 5.667969 2.484374 8.550782 1.347656l8.015625-2.917969c2.863281-1.046875 4.953125-3.539063 5.476562-6.542969.527344-3.003906-.585937-6.058594-2.925781-8.015625-2.335938-1.957031-5.542969-2.519531-8.40625-1.476562zm0 0"/><path d="m75.535156 370.082031 7.390625-4.265625c2.660157-1.515625 4.308594-4.335937 4.316407-7.398437.007812-3.0625-1.628907-5.894531-4.285157-7.417969-2.652343-1.527344-5.921875-1.511719-8.566406.035156l-7.386719 4.269532c-2.664062 1.511718-4.308594 4.335937-4.316406 7.398437s1.628906 5.890625 4.28125 7.417969c2.65625 1.523437 5.925781 1.511718 8.566406-.039063zm0 0"/><path d="m436.503906 141.96875-7.390625 4.265625c-2.660156 1.515625-4.308593 4.339844-4.3125 7.402344-.007812 3.0625 1.625 5.890625 4.28125 7.417969 2.65625 1.523437 5.925781 1.511718 8.566407-.039063l7.390624-4.265625c2.660157-1.515625 4.308594-4.339844 4.3125-7.398438.007813-3.0625-1.625-5.894531-4.28125-7.421874-2.65625-1.523438-5.925781-1.507813-8.566406.039062zm0 0"/><path d="m93.652344 381.132812-6.535156 5.488282c-3.476563 3.0625-3.875 8.339844-.894532 11.890625 2.980469 3.546875 8.25 4.070312 11.867188 1.171875l6.535156-5.484375c2.417969-1.9375 3.597656-5.03125 3.082031-8.082031-.515625-3.054688-2.644531-5.589844-5.5625-6.625-2.917969-1.035157-6.167969-.40625-8.492187 1.640624zm0 0"/><path d="m412.917969 132.914062c2 .003907 3.9375-.699218 5.46875-1.988281l6.546875-5.484375c2.335937-1.960937 3.449218-5.015625 2.921875-8.019531-.527344-3.003906-2.617188-5.496094-5.480469-6.539063-2.867188-1.046874-6.070312-.484374-8.40625 1.476563l-6.546875 5.488281c-2.75 2.304688-3.761719 6.085938-2.53125 9.457032 1.230469 3.371093 4.4375 5.613281 8.027344 5.609374zm0 0"/><path d="m145.089844 448.171875c1.960937 1.128906 4.292968 1.433594 6.476562.847656 2.1875-.585937 4.050782-2.019531 5.179688-3.980469l4.269531-7.390624c2.316406-4.078126.910156-9.261719-3.152344-11.605469-4.0625-2.347657-9.257812-.972657-11.628906 3.074219l-4.265625 7.390624c-1.136719 1.957032-1.441406 4.289063-.859375 6.476563.585937 2.191406 2.019531 4.054687 3.980469 5.1875zm0 0"/><path d="m358.425781 87.203125c3.050781.003906 5.871094-1.625 7.398438-4.265625l4.265625-7.390625c1.546875-2.640625 1.5625-5.910156.039062-8.566406-1.527344-2.65625-4.359375-4.289063-7.417968-4.285157-3.0625.007813-5.886719 1.65625-7.402344 4.316407l-4.265625 7.390625c-1.523438 2.640625-1.523438 5.890625-.003907 8.53125 1.523438 2.636718 4.339844 4.265625 7.386719 4.269531zm0 0"/><path d="m188.894531 440.457031c-2.128906-.769531-4.476562-.664062-6.527343.296875-2.050782.957032-3.636719 2.695313-4.40625 4.824219l-2.917969 8.011719c-1.613281 4.429687.671875 9.328125 5.101562 10.941406 4.429688 1.609375 9.328125-.675781 10.941407-5.105469l2.910156-8.011719c.78125-2.128906.679687-4.480468-.277344-6.539062-.957031-2.054688-2.695312-3.644531-4.824219-4.417969zm0 0"/><path d="m323.15625 71.59375c2.128906.773438 4.476562.667969 6.527344-.292969 2.050781-.960937 3.632812-2.695312 4.402344-4.824219l2.917968-8.015624c1.042969-2.863282.480469-6.070313-1.480468-8.40625-1.960938-2.335938-5.019532-3.445313-8.023438-2.917969-3.003906.53125-5.496094 2.621093-6.535156 5.488281l-2.910156 8.011719c-.78125 2.132812-.683594 4.484375.277343 6.539062.957031 2.054688 2.691407 3.644531 4.824219 4.417969zm0 0"/><path d="m212.0625 456.234375-1.488281 8.398437c-.8125 4.636719 2.285156 9.0625 6.921875 9.878907.492187.09375.992187.140625 1.492187.136719 4.140625 0 7.679688-2.972657 8.398438-7.046876l1.476562-8.398437c.605469-3.03125-.480469-6.15625-2.832031-8.164063-2.355469-2.003906-5.613281-2.582031-8.511719-1.503906-2.898437 1.078125-4.988281 3.644532-5.457031 6.699219zm0 0"/><path d="m291.589844 62.867188c4.140625-.003907 7.679687-2.976563 8.398437-7.050782l1.484375-8.394531c.820313-4.644531-2.277344-9.070313-6.921875-9.890625-4.640625-.820312-9.070312 2.277344-9.886719 6.917969l-1.476562 8.398437c-.394531 2.230469.113281 4.523438 1.410156 6.378906 1.296875 1.855469 3.28125 3.117188 5.507813 3.511719.492187.082031.988281.125 1.484375.128907zm0 0"/><path d="m256.023438 264.558594h-46.078126l21.9375-19.832032c1.808594-1.636718 3.710938-3.265624 5.640626-4.921874 12.03125-10.359376 27.035156-23.253907 27.035156-43.511719 0-23.5625-19.101563-42.667969-42.667969-42.667969-23.5625 0-42.667969 19.105469-42.667969 42.667969 0 4.710937 3.820313 8.53125 8.535156 8.53125 4.710938 0 8.535157-3.820313 8.535157-8.53125-.019531-6.792969 2.679687-13.3125 7.5-18.097657 10.132812-9.671874 26.074219-9.671874 36.207031 0 4.8125 4.789063 7.511719 11.304688 7.492188 18.097657 0 12.425781-10.242188 21.230469-21.113282 30.566406-2.03125 1.707031-4.042968 3.472656-5.972656 5.195313l-38.398438 34.707031c-2.625 2.371093-3.515624 6.113281-2.238281 9.410156 1.273438 3.296875 4.453125 5.46875 7.988281 5.453125h68.265626c4.714843 0 8.535156-3.820312 8.535156-8.53125 0-4.714844-3.820313-8.535156-8.535156-8.535156zm0 0"/><path d="m324.292969 281.625c4.710937 0 8.53125-3.820312 8.53125-8.53125v-17.066406h8.535156c4.710937 0 8.53125-3.820313 8.53125-8.535156 0-4.710938-3.820313-8.53125-8.53125-8.53125h-8.535156v-8.535157c0-4.710937-3.820313-8.53125-8.53125-8.53125-4.714844 0-8.535157 3.820313-8.535157 8.53125v8.535157h-28.859374l36.539062-72.988282c2.105469-4.21875.394531-9.34375-3.824219-11.449218-4.214843-2.109376-9.34375-.394532-11.449219 3.820312l-42.667968 85.335938c-1.320313 2.636718-1.179688 5.769531.363281 8.285156 1.546875 2.511718 4.28125 4.046875 7.230469 4.0625h42.667968v17.066406c0 2.261719.898438 4.433594 2.5 6.03125 1.597657 1.601562 3.769532 2.5 6.035157 2.5zm0 0"/><path d="m196.292969 307.226562c0-4.714843-3.824219-8.535156-8.535157-8.535156-4.714843 0-8.535156 3.820313-8.535156 8.535156v17.066407h-17.066406v-17.066407c0-4.714843-3.820312-8.535156-8.53125-8.535156-4.714844 0-8.535156 3.820313-8.535156 8.535156v51.199219c0 4.714844 3.820312 8.535157 8.535156 8.535157 4.710938 0 8.53125-3.820313 8.53125-8.535157v-17.066406h17.066406v17.066406c0 4.714844 3.820313 8.535157 8.535156 8.535157 4.710938 0 8.535157-3.820313 8.535157-8.535157zm0 0"/><path d="m256.023438 349.894531v-34.136719c0-9.425781-7.640626-17.066406-17.066407-17.066406h-17.066406c-9.425781 0-17.066406 7.640625-17.066406 17.066406v34.136719c0 9.421875 7.640625 17.066407 17.066406 17.066407h17.066406c9.425781 0 17.066407-7.644532 17.066407-17.066407zm-34.132813-34.136719h17.066406v34.136719h-17.066406zm0 0"/><path d="m315.757812 349.894531v-42.667969c0-4.714843-3.820312-8.535156-8.535156-8.535156-4.710937 0-8.53125 3.820313-8.53125 8.535156v42.667969h-17.066406v-42.667969c0-4.714843-3.820312-8.535156-8.535156-8.535156-4.710938 0-8.53125 3.820313-8.53125 8.535156v42.667969c0 9.421875 7.640625 17.066407 17.066406 17.066407h17.066406c9.425782 0 17.066406-7.644532 17.066406-17.066407zm0 0"/><path d="m375.492188 324.292969c0-14.140625-11.460938-25.601563-25.601563-25.601563h-17.066406c-4.710938 0-8.53125 3.820313-8.53125 8.535156v51.199219c0 4.714844 3.820312 8.535157 8.53125 8.535157 4.714843 0 8.535156-3.820313 8.535156-8.535157v-8.53125h5l14.566406 14.566407c3.347657 3.230468 8.667969 3.1875 11.960938-.105469s3.339843-8.613281.105469-11.960938l-7.75-7.75c6.429687-4.792969 10.226562-12.332031 10.25-20.351562zm-34.132813-8.535157h8.53125c4.714844 0 8.535156 3.820313 8.535156 8.535157 0 4.710937-3.820312 8.53125-8.535156 8.53125h-8.53125zm0 0"/></svg>