<svg height="512" fill="#7f338b" viewBox="0 0 60 56" width="512" xmlns="http://www.w3.org/2000/svg"><g id="030---Excersise"><circle id="Oval" cx="22" cy="5" r="5"/><path id="Shape" d="m14.31 48.31c-.3783151 1.0410568.1589432 2.1916849 1.2 2.57s2.1916849-.1589432 2.57-1.2c.14-.34-.33.74 1.53-3.48l-3.92-1.3z"/><path id="Shape" d="m31 49c-.0008326.5500535.224913 1.0761694.6241268 1.4545712.3992139.3784017.9366517.5756824 1.4858732.5454288 1.0956991-.1192375 1.9172644-1.0581693 1.89-2.16v-4.84h-4.0000023z"/><path id="Shape" d="m52.13 26.65 7.39-8.65c.3592246-.4200138.5286316-.9699536.4680143-1.5192981-.0606174-.5493446-.3458546-1.0491167-.7880143-1.3807019l-1.68-1.26c-1.2436552-.9068414-2.9718284-.7253832-4 .42l-5.52 6.13c-.533782.5985909-.8056575 1.385991-.7549271 2.1864038.0507304.8004129.4198423 1.547187 1.0249271 2.0735962l1.73 1.44-3.45 3.91h-18.55v-6.59l-1.71-1.7c-.3921221-.3921222-.3921221-1.0278778 0-1.42.3921222-.3921221 1.0278778-.3921221 1.42 0l2 2 2.13 2.12c.3751365.3755541.8841815.5865733 1.415.5865733s1.0398635-.2110192 1.415-.5865733l3.82-3.75c.5964778-.5632821.674005-1.484995.18-2.14-.2787586-.3064153-.6692072-.4876078-1.083176-.5026612-.4139687-.0150535-.8165463.1373017-1.116824.4226612l-1.82 1.74c-.7913048.7379855-2.0186952.7379855-2.81 0l-5.66-5.6c-.379091-.3656821-.8833258-.5730978-1.41-.58-6.55 0-7.2-.16-8.81.49l-6 2.44c-2.00127012.7633164-3.0461044 2.9676081-2.37 5l1.42 3.94c.23472102.79529 1.06971 1.249721 1.865 1.015s1.249721-1.06971 1.015-1.865l-1-3c-.1627734-.5078668-.1159662-1.05971.1300205-1.532906.2459868-.4731959.6707772-.8285479 1.1799795-.987094l3.8-1.21v-.29c0-.5522847.4477153-1 1-1s1 .4477153 1 1v12h-9c-3.3137085 0-6 2.6862915-6 6v15c-.89316397.0875301-1.67178479.6449085-2.04256351 1.4621762-.37077872.8172678-.27738525 1.7702624.245 2.5.52238525.7297377 1.39439954 1.1253539 2.28756351 1.0378238h53c1.3807119 0 2.5-1.1192881 2.5-2.5s-1.1192881-2.5-2.5-2.5h-3.49c0-.31.38 1.31-4.88-19.74l4-4.6zm-1.13 24.4h-46v-15.05c0-2.209139 1.790861-4 4-4h9c0 8.24.34 6.34-1.55 11l4 1.32c1.68-3.83 1.55-3.2 1.55-5.9.0074278-.9430751.5491229-1.8003186 1.3976911-2.2118741.8485681-.4115556 1.8571302-.3061869 2.6023089.2718741l3.59 2.87c.8905435.5856432 1.4218572 1.5842115 1.41 2.65h4v-2c.0019926-.9726337-.4676734-1.8858733-1.26-2.45-.09-.06-5.33-4.89-5.43-4.89-.176038-.1778878-.2854997-.4109354-.31-.66h18.22zm-1.37-27.9c-.2016949-.1754697-.3247322-.4243944-.3416424-.6911987-.0169101-.2668043.0737151-.529271.2516424-.7288013l5.46-6.12c.3445987-.3916485.9323679-.4526024 1.35-.14l1.65 1.26-6.73 7.85z"/></g></svg>