<?xml version="1.0" encoding="utf-8"?>
<!-- Generator: Adobe Illustrator 24.0.2, SVG Export Plug-In . SVG Version: 6.00 Build 0)  -->
<svg version="1.1" baseProfile="tiny" id="svg" xmlns="http://www.w3.org/2000/svg" xmlns:xlink="http://www.w3.org/1999/xlink"
	 x="0px" y="0px" viewBox="0 0 400 400" xml:space="preserve">
<g>
	<g>
		<path fill="#FFFFFF" d="M68.9,274.8h26.6c12.1,0,19.1,4.9,19.1,14.5c0,6.9-3.9,11.5-10.6,13.3c9.4,1.8,13.7,7.7,13.7,15
			c0,7.8-4.8,15.6-20.1,15.6H68.9V274.8z M74.9,301H94c9.3,0,14.4-3.7,14.4-10.6c0.1-6.9-5.1-10.6-14.4-10.6H74.9V301z M74.9,328.2
			h21.4c10.6,0,15.1-4.8,15.1-11.4c0-6.7-4.5-11.5-15.1-11.5H74.9V328.2z M138.7,333.2h-6v-58.4h6V333.2z M188.1,274.8v37.6
			c0,14.8-7.6,21.7-20.1,21.7c-7.8,0-14-2.6-18.5-8l4.8-3.3c3.6,3.8,8,5.8,13.5,5.8c8.4,0,14.3-5.2,14.3-16.2v-37.6H188.1z
			 M260.4,288.9c2.8,4.6,4.2,9.7,4.2,15.1c0,5.4-1.4,10.5-4.2,15.1c-5.4,9.3-15.5,14.9-26.6,14.9c-16.6,0.4-31.3-13.8-30.8-30.1
			c0-16.6,13.8-30.1,30.8-30.1C244.9,273.9,254.9,279.6,260.4,288.9z M209.2,304c0,6.8,2.3,12.5,7.1,17.3c4.8,4.8,10.6,7.1,17.4,7.1
			c6.9,0,12.6-2.3,17.4-7.1c4.8-4.8,7.2-10.5,7.2-17.3c0-6.8-2.4-12.4-7.2-17.2c-4.8-4.8-10.5-7.2-17.3-7.2
			C220.3,279.4,209,290.7,209.2,304z M330.4,274.8v32.6c0,8.6-2.3,15.2-6.9,19.8c-4.6,4.6-10.8,6.9-18.6,6.9c-7.8,0-14-2.3-18.6-6.9
			c-4.6-4.6-6.9-11.2-6.9-19.8v-32.6h6v32.6c0,13.9,7.9,21.2,19.5,21.2c11.7,0,19.4-7.6,19.4-21.2v-32.6H330.4z"/>
		<path fill="#FFFFFF" d="M107.2,369.7h-3.5l-0.7-5H92.4l-3.7,5h-3.6l15.3-20.8h3.9L107.2,369.7z M94,362.2h8.9l-1.4-10.1L94,362.2z
			 M137.9,369.7H135l5.1-16.9L127,367.4h-1.2l-4.3-14.6l-5.1,16.9h-2.9l6.2-20.8h4l4.1,13.8l12.4-13.8h4L137.9,369.7z M167.6,351.6
			h-12.8l-1.9,6.3h11.8l-0.8,2.6h-11.8l-2,6.5h13.1l-0.8,2.7h-16.1l6.2-20.8h15.8L167.6,351.6z M162.8,347.1h-2.4l-2.4-4.7h2.9
			L162.8,347.1z M189.7,351.5h-7l-5.5,18.3h-3l5.5-18.3h-7l0.8-2.6h16.9L189.7,351.5z M209.1,369.7h-3l2.7-9.1h-12.5l-2.7,9.1h-3
			l6.2-20.8h3l-2.7,9h12.5l2.7-9h3L209.1,369.7z M229.6,362.2l-2.3,7.5h-3l2.3-7.5l-4.8-13.4h3.5l3.6,10.2l9.8-10.2h3.6L229.6,362.2
			z M262.7,350.8l-1.8,2.2c-1.8-1.2-4.4-1.9-6.7-1.9c-2.6,0-4.9,1-5.5,3.2c-0.2,0.7-0.1,1.3,0.4,1.8c0.5,0.4,1.6,0.9,3.4,1.4h0h0
			l0,0h0h0h0l0,0h0h0.1c2.6,0.7,4.4,1.4,5.1,1.9c1.4,0.9,1.9,2.3,1.5,4.1l-0.2,0.6c-0.6,1.9-1.7,3.3-3.5,4.3c-1.8,1-3.9,1.5-6.3,1.5
			c-3.5,0-6.7-1-8.8-2.7l1.9-2.1c1.9,1.5,4.8,2.3,7.6,2.3c2.6,0,5.2-1,5.9-3.2c0.4-1.2,0.1-1.8-0.5-2.4c-0.2-0.1-0.8-0.4-1.1-0.6
			c-0.1-0.1-0.4-0.1-0.8-0.2c-0.7-0.2-0.9-0.3-1.9-0.6l-0.7-0.2c-2.5-0.7-3.9-1.2-5-2.1c-1.1-0.9-1.3-2.1-0.8-3.7
			c1.2-4.1,5.3-5.9,9.5-5.9C258,348.6,260.8,349.4,262.7,350.8z M285,351.5h-7l-5.5,18.3h-3l5.5-18.3h-7l0.8-2.6h16.9L285,351.5z
			 M307.2,351.6h-12.8l-1.9,6.3h11.8l-0.8,2.6h-11.8l-2,6.5h13.1l-0.8,2.7h-16.1l6.2-20.8H308L307.2,351.6z"/>
	</g>
	<g>
		<polygon fill="#FFFFFF" points="294.6,30 203.8,30 196.2,30 105.4,30 36.3,99 200,264 363.7,99 		"/>
		<polygon fill="#682A77" points="141.5,62.2 188,95.2 136.6,95.2 125.6,68.8 		"/>
		<polygon fill="#924997" points="122.6,61.8 115,43.4 134.1,57 		"/>
		<polygon fill="#682A77" points="274.4,68.8 263.4,95.2 212,95.2 258.5,62.2 		"/>
		<polygon fill="#924997" points="265.9,57 285,43.4 277.4,61.8 		"/>
		<polygon fill="#924997" points="281.5,71.8 338,95.2 271.7,95.2 		"/>
		<polygon fill="#7F338B" points="260.2,102.9 245,139.5 209.1,102.9 		"/>
		<polygon fill="#7F338B" points="203.8,91.6 203.8,39.6 250.1,58.8 		"/>
		<polygon fill="#924997" points="196.2,91.6 149.9,58.8 196.2,39.6 		"/>
		<polygon fill="#924997" points="190.9,102.9 155,139.5 139.8,102.9 		"/>
		<polygon fill="#924997" points="128.3,95.2 62,95.2 118.5,71.8 		"/>
		<polygon fill="#682A77" points="131.5,102.9 146.6,139.3 58.9,102.9 		"/>
		<polygon fill="#7F338B" points="196.2,108.5 196.2,238.4 158.2,147.2 		"/>
		<polygon fill="#924997" points="203.8,108.5 241.8,147.2 203.8,238.4 		"/>
		<polygon fill="#682A77" points="268.5,102.9 341.1,102.9 253.4,139.3 		"/>
		<polygon fill="#E9E7EA" points="284.4,64.7 294.4,40.7 342.6,88.8 		"/>
		<polygon fill="#E9E7EA" points="257.5,53.5 219.3,37.7 279.8,37.7 		"/>
		<polygon fill="#E9E7EA" points="142.5,53.5 120.2,37.7 180.7,37.7 		"/>
		<polygon fill="#E9E7EA" points="115.6,64.7 57.4,88.8 105.6,40.7 		"/>
		<polygon fill="#7F338B" points="134.4,142.5 90.3,142.5 59.4,111.4 		"/>
		<polygon fill="#924997" points="151.1,150.2 189.6,242.6 97.9,150.2 		"/>
		<polygon fill="#7F338B" points="248.9,150.2 302.1,150.2 210.4,242.6 		"/>
		<polygon fill="#924997" points="265.6,142.5 340.6,111.4 309.7,142.5 		"/>
	</g>
</g>
</svg>
