<svg id="svg" version="1.1" xmlns="http://www.w3.org/2000/svg" xmlns:xlink="http://www.w3.org/1999/xlink" width="400" height="400" viewBox="0, 0, 400,400"><g id="svgg"><path id="path0" d="M189.630 71.950 C 183.356 74.576,171.939 79.278,165.370 81.941 C 163.333 82.767,161.551 83.543,161.411 83.666 C 161.270 83.789,162.353 84.734,163.818 85.766 C 165.283 86.798,171.398 91.120,177.407 95.370 C 183.417 99.620,189.967 104.252,191.965 105.664 C 193.962 107.076,195.672 108.155,195.764 108.063 C 195.857 107.970,195.889 99.232,195.837 88.643 L 195.741 69.392 189.630 71.950 M201.481 88.920 C 201.481 104.538,201.576 108.504,201.944 108.279 C 202.199 108.124,205.001 106.156,208.170 103.906 C 211.340 101.656,219.025 96.231,225.248 91.852 C 232.134 87.005,236.389 83.786,236.119 83.626 C 235.719 83.389,229.640 80.850,221.667 77.589 C 220.037 76.923,215.204 74.925,210.926 73.150 C 206.648 71.375,202.773 69.778,202.315 69.600 L 201.481 69.278 201.481 88.920 M259.408 74.368 C 258.369 75.123,255.410 77.232,252.832 79.054 C 250.254 80.876,248.271 82.484,248.424 82.626 C 248.762 82.938,256.020 85.967,256.112 85.834 C 256.147 85.783,256.444 85.074,256.771 84.259 C 257.099 83.444,258.282 80.569,259.400 77.870 C 260.519 75.171,261.403 72.970,261.365 72.979 C 261.327 72.989,260.447 73.614,259.408 74.368 M136.633 74.167 C 136.808 74.625,137.823 77.083,138.889 79.630 C 139.954 82.176,140.966 84.626,141.138 85.074 L 141.449 85.889 145.076 84.396 C 147.071 83.575,148.912 82.815,149.166 82.708 C 149.547 82.548,137.098 73.333,136.501 73.333 C 136.399 73.333,136.458 73.708,136.633 74.167 M135.926 94.136 C 134.342 94.848,111.593 104.298,100.593 108.813 L 95.446 110.926 108.093 111.023 C 115.049 111.077,126.387 111.077,133.288 111.023 L 145.835 110.926 142.526 102.963 C 140.706 98.583,139.064 94.625,138.877 94.167 C 138.468 93.165,138.093 93.161,135.926 94.136 M255.383 102.053 C 253.391 106.849,251.838 110.850,251.932 110.945 C 252.027 111.039,263.319 111.074,277.026 111.021 L 301.947 110.926 293.103 107.256 C 288.239 105.237,280.259 101.925,275.370 99.897 C 261.284 94.051,259.523 93.333,259.257 93.333 C 259.119 93.333,257.376 97.257,255.383 102.053 M154.444 116.990 C 154.444 117.168,154.760 118.043,155.146 118.934 C 155.531 119.826,157.882 125.472,160.369 131.481 C 162.856 137.491,165.004 142.612,165.141 142.862 C 165.300 143.152,170.218 138.489,178.712 129.992 L 192.033 116.667 173.239 116.667 C 162.781 116.667,154.444 116.810,154.444 116.990 M218.704 130.000 C 233.764 145.064,232.246 143.820,233.036 141.759 C 233.368 140.894,235.506 135.685,237.786 130.185 C 240.067 124.685,242.246 119.394,242.628 118.426 L 243.323 116.667 224.348 116.667 L 205.374 116.667 218.704 130.000 M181.636 134.844 L 167.532 148.948 175.069 167.159 C 179.214 177.175,183.000 186.287,183.482 187.407 C 183.964 188.528,186.919 195.654,190.049 203.243 L 195.741 217.041 195.836 192.965 C 195.888 179.723,195.888 158.055,195.836 144.814 L 195.741 120.739 181.636 134.844 M201.481 169.045 C 201.481 195.712,201.547 217.461,201.627 217.377 C 201.707 217.292,202.889 214.472,204.253 211.111 C 205.617 207.750,207.129 204.083,207.612 202.963 C 208.096 201.843,211.348 194.009,214.838 185.556 C 218.328 177.102,221.982 168.269,222.958 165.926 C 225.913 158.834,229.318 150.603,229.637 149.781 C 229.896 149.111,228.031 147.102,215.709 134.783 L 201.481 120.559 201.481 169.045 M104.884 133.704 L 116.757 145.556 133.440 145.556 C 142.616 145.556,150.054 145.492,149.969 145.415 C 149.884 145.338,141.065 141.651,130.370 137.222 C 119.676 132.793,106.952 127.522,102.096 125.510 C 97.239 123.498,93.208 121.852,93.138 121.852 C 93.068 121.852,98.354 127.185,104.884 133.704 M296.481 125.043 C 287.311 128.899,285.338 129.722,264.486 138.386 L 247.675 145.370 264.296 145.467 L 280.917 145.563 292.772 133.708 C 299.293 127.187,304.462 121.869,304.259 121.890 C 304.055 121.911,300.556 123.330,296.481 125.043 M156.481 185.185 C 175.221 203.926,190.598 219.259,190.652 219.259 C 190.706 219.259,190.485 218.634,190.159 217.870 C 189.834 217.106,188.832 214.686,187.932 212.491 C 187.033 210.296,185.060 205.546,183.547 201.935 C 180.768 195.300,176.894 185.946,171.317 172.407 C 169.639 168.333,166.965 161.875,165.376 158.056 L 162.486 151.111 142.448 151.111 L 122.409 151.111 156.481 185.185 M233.062 155.841 C 231.996 158.434,227.639 168.972,223.380 179.259 C 213.173 203.910,207.958 216.517,207.216 218.333 C 206.740 219.500,213.892 212.540,240.898 185.556 C 259.756 166.714,275.185 151.256,275.185 151.204 C 275.185 151.153,266.144 151.115,255.093 151.119 L 235.000 151.127 233.062 155.841 M165.069 324.313 C 164.343 325.040,164.802 337.407,165.556 337.407 C 166.235 337.407,166.296 337.160,166.296 334.444 L 166.296 331.481 170.185 331.481 L 174.074 331.481 174.074 334.444 C 174.074 336.831,174.182 337.407,174.630 337.407 C 175.103 337.407,175.185 336.420,175.185 330.741 C 175.185 325.062,175.103 324.074,174.630 324.074 C 174.179 324.074,174.074 324.671,174.074 327.222 L 174.074 330.370 170.200 330.370 L 166.326 330.370 166.219 327.345 C 166.120 324.572,165.760 323.623,165.069 324.313 M183.730 324.723 C 180.370 326.436,179.017 331.160,180.946 334.443 C 183.518 338.821,190.383 338.508,192.542 333.914 C 195.332 327.979,189.425 321.819,183.730 324.723 M196.118 324.434 C 195.650 325.190,196.377 325.556,198.346 325.556 L 200.352 325.556 200.454 331.384 C 200.545 336.594,200.624 337.226,201.204 337.337 C 201.799 337.452,201.852 336.979,201.852 331.509 L 201.852 325.556 204.101 325.556 C 206.044 325.556,206.334 325.467,206.226 324.907 C 206.080 324.146,196.571 323.701,196.118 324.434 M210.988 324.321 C 210.852 324.457,210.741 327.462,210.741 330.999 L 210.741 337.430 215.463 337.326 C 219.368 337.240,220.185 337.126,220.185 336.667 C 220.185 336.212,219.429 336.092,216.019 336.006 L 211.852 335.902 211.852 333.692 L 211.852 331.481 215.583 331.481 C 218.936 331.481,219.301 331.416,219.190 330.833 C 219.083 330.278,218.550 330.170,215.459 330.079 L 211.852 329.973 211.852 327.764 L 211.852 325.556 215.926 325.556 C 219.753 325.556,220.000 325.511,220.000 324.815 C 220.000 324.066,211.697 323.611,210.988 324.321 M224.608 324.551 C 224.508 324.814,224.471 327.772,224.527 331.125 L 224.630 337.222 229.074 337.222 C 232.778 337.222,233.519 337.130,233.519 336.667 C 233.519 336.216,232.803 336.091,229.722 336.006 L 225.926 335.900 225.926 329.987 C 225.926 324.924,225.844 324.074,225.359 324.074 C 225.047 324.074,224.709 324.289,224.608 324.551 M188.887 325.970 C 193.990 328.838,191.917 336.678,186.186 336.184 C 180.965 335.734,179.752 328.154,184.525 325.801 C 186.162 324.994,187.225 325.036,188.887 325.970 " stroke="none" fill="#fff" fill-rule="evenodd"></path><path id="path1" d="M154.444 86.592 C 154.139 86.693,152.222 87.483,150.185 88.347 C 148.148 89.211,145.852 90.180,145.082 90.500 L 143.682 91.082 144.283 92.486 C 144.613 93.257,145.803 96.139,146.926 98.889 C 148.049 101.639,149.278 104.575,149.656 105.413 C 150.034 106.251,150.695 107.876,151.124 109.024 L 151.905 111.111 170.860 111.099 C 187.964 111.089,189.742 111.032,189.074 110.520 C 188.418 110.017,175.095 100.584,163.571 92.463 C 161.301 90.863,158.444 88.847,157.222 87.981 C 156.000 87.116,154.750 86.490,154.444 86.592 M239.899 88.282 C 238.427 89.337,233.032 93.152,227.911 96.761 C 222.790 100.369,216.136 105.076,213.125 107.220 L 207.651 111.118 226.652 111.022 L 245.653 110.926 249.718 101.169 C 252.054 95.560,253.644 91.273,253.457 91.086 C 253.278 90.907,250.756 89.772,247.853 88.563 L 242.575 86.365 239.899 88.282 M98.519 117.997 C 100.250 118.710,103.417 120.021,105.556 120.910 C 124.782 128.906,156.771 142.139,158.038 142.621 C 159.093 143.022,159.037 142.657,157.535 139.362 C 157.051 138.298,156.007 135.798,155.216 133.806 C 153.942 130.598,152.137 126.217,149.146 119.074 L 148.216 116.852 121.793 116.777 L 95.370 116.701 98.519 117.997 M248.243 119.540 C 243.848 130.027,238.612 142.791,238.676 142.863 C 238.749 142.946,241.236 141.932,259.074 134.545 C 263.759 132.605,269.509 130.226,271.852 129.258 C 275.765 127.642,285.539 123.574,292.778 120.551 C 294.407 119.870,297.157 118.726,298.889 118.008 L 302.037 116.704 275.741 116.688 L 249.444 116.673 248.243 119.540 M164.352 295.457 C 162.772 296.105,162.654 296.545,163.704 297.879 C 164.743 299.200,164.727 299.213,161.958 299.335 C 159.529 299.442,159.467 299.470,159.231 300.556 C 159.017 301.540,158.523 303.403,156.430 311.111 C 156.126 312.231,155.663 313.940,155.400 314.907 L 154.923 316.667 161.514 316.667 C 165.139 316.667,168.178 316.542,168.268 316.389 C 168.358 316.236,168.548 315.569,168.690 314.907 L 168.948 313.704 164.060 313.704 L 159.173 313.704 159.416 312.870 C 159.549 312.412,159.757 311.495,159.878 310.833 L 160.097 309.630 164.632 309.630 L 169.167 309.630 169.372 308.611 C 169.485 308.051,169.689 307.306,169.824 306.956 C 170.047 306.380,169.654 306.310,165.651 306.215 L 161.233 306.111 161.635 304.444 L 162.037 302.778 166.997 302.593 L 171.957 302.407 172.421 300.833 L 172.885 299.259 170.537 299.259 L 168.190 299.259 167.192 297.037 C 166.644 295.815,166.093 294.831,165.968 294.851 C 165.843 294.871,165.116 295.143,164.352 295.457 M150.556 298.148 C 149.970 298.759,149.369 299.259,149.220 299.259 C 149.072 299.259,147.219 301.028,145.104 303.190 L 141.257 307.121 139.637 303.468 C 138.746 301.459,137.826 299.648,137.593 299.444 C 137.359 299.241,136.983 298.741,136.757 298.333 L 136.346 297.593 136.070 298.333 C 135.919 298.741,135.679 299.157,135.538 299.259 C 135.329 299.411,131.838 311.921,130.965 315.648 C 130.667 316.920,133.863 317.286,134.193 316.019 C 135.009 312.884,136.103 308.775,136.488 307.407 L 136.956 305.741 137.767 307.593 C 138.214 308.611,138.807 309.986,139.085 310.648 C 139.895 312.572,140.982 312.279,143.682 309.409 C 146.511 306.401,146.558 306.446,145.327 310.970 C 143.710 316.911,143.696 316.667,145.669 316.667 C 147.338 316.667,147.349 316.658,147.720 315.093 C 147.924 314.227,148.428 312.269,148.838 310.741 C 151.308 301.546,152.264 297.037,151.744 297.037 C 151.676 297.037,151.141 297.537,150.556 298.148 M119.394 299.189 C 118.756 299.737,116.186 302.935,113.683 306.296 C 111.180 309.657,108.495 313.256,107.715 314.293 C 105.927 316.670,105.927 316.667,108.149 316.667 C 109.974 316.667,110.026 316.634,111.726 314.444 L 113.452 312.222 117.057 312.222 C 121.043 312.222,120.884 312.120,121.309 314.953 L 121.566 316.667 123.190 316.667 C 125.215 316.667,125.361 318.462,122.029 302.408 C 121.690 300.779,121.287 299.362,121.133 299.260 C 120.978 299.158,120.785 298.876,120.704 298.634 C 120.610 298.355,120.131 298.558,119.394 299.189 M177.769 300.209 C 176.961 302.332,177.185 302.593,179.815 302.593 C 182.585 302.593,182.506 302.413,181.448 306.296 C 178.356 317.645,178.443 316.667,180.526 316.667 C 182.146 316.667,182.166 316.651,182.530 315.093 C 183.224 312.122,185.619 303.161,185.794 302.877 C 185.891 302.720,187.110 302.593,188.504 302.593 C 191.014 302.593,191.043 302.581,191.445 301.426 C 192.228 299.179,192.466 299.259,184.991 299.259 L 178.130 299.259 177.769 300.209 M198.148 299.478 C 198.148 299.689,197.141 303.492,194.822 312.037 C 194.214 314.278,193.714 316.236,193.710 316.389 C 193.707 316.542,194.427 316.667,195.312 316.667 C 197.102 316.667,196.793 317.167,198.335 311.759 L 198.941 309.630 202.619 309.630 C 204.641 309.630,206.291 309.755,206.286 309.907 C 206.280 310.060,205.951 311.352,205.556 312.778 C 204.516 316.524,204.543 316.667,206.274 316.667 C 208.013 316.667,207.898 316.822,208.889 313.131 C 209.324 311.511,209.906 309.352,210.183 308.333 C 210.459 307.315,211.038 305.148,211.469 303.519 C 211.901 301.889,212.341 300.264,212.448 299.907 C 212.613 299.358,212.391 299.259,210.991 299.259 C 209.044 299.259,209.038 299.271,207.632 305.278 L 207.393 306.296 203.697 306.296 C 201.663 306.296,200.000 306.151,200.000 305.973 C 200.000 305.795,200.331 304.337,200.735 302.732 C 201.139 301.128,201.473 299.690,201.476 299.537 C 201.479 299.384,200.731 299.259,199.815 299.259 C 198.898 299.259,198.148 299.358,198.148 299.478 M217.982 300.060 C 218.122 300.500,218.943 302.375,219.807 304.226 C 221.580 308.027,222.047 309.280,221.890 309.815 C 221.371 311.589,220.370 315.775,220.370 316.170 C 220.370 316.509,220.881 316.667,221.978 316.667 L 223.586 316.667 224.055 314.571 C 224.928 310.668,225.269 310.153,230.556 304.747 L 235.741 299.444 233.546 299.331 L 231.351 299.218 227.910 302.646 C 226.017 304.531,224.394 305.998,224.303 305.907 C 224.212 305.815,223.462 304.282,222.635 302.500 L 221.131 299.259 219.430 299.259 C 217.854 299.259,217.747 299.319,217.982 300.060 M241.099 300.139 C 237.117 302.845,238.009 307.097,242.963 309.032 C 246.548 310.433,247.403 312.001,245.204 313.139 C 243.182 314.184,241.004 313.708,239.010 311.784 L 237.834 310.650 236.695 311.461 C 235.381 312.397,235.353 312.508,236.143 313.637 C 239.851 318.931,249.630 317.345,249.630 311.449 C 249.630 309.055,248.653 307.976,244.937 306.267 C 241.794 304.822,241.344 304.265,242.500 303.249 C 244.131 301.817,246.719 302.011,248.654 303.710 L 249.885 304.790 250.902 303.729 C 253.819 300.684,245.033 297.466,241.099 300.139 M257.398 300.209 C 256.591 302.332,256.814 302.593,259.444 302.593 C 262.262 302.593,262.184 302.365,260.923 306.868 C 257.926 317.574,257.998 316.667,260.140 316.667 L 261.761 316.667 262.545 313.611 C 262.977 311.931,263.799 308.806,264.373 306.667 L 265.416 302.778 268.048 302.670 C 270.622 302.564,270.688 302.536,271.080 301.411 C 271.857 299.182,272.090 299.259,264.620 299.259 L 257.759 299.259 257.398 300.209 M277.451 300.833 C 277.224 301.699,276.721 303.574,276.334 305.000 C 274.728 310.923,273.333 316.243,273.333 316.448 C 273.333 316.568,276.299 316.667,279.923 316.667 L 286.514 316.667 286.909 315.185 L 287.304 313.704 282.356 313.704 C 279.634 313.704,277.415 313.662,277.424 313.611 C 277.433 313.560,277.659 312.685,277.927 311.667 L 278.414 309.815 282.855 309.711 L 287.297 309.608 287.722 308.187 C 287.957 307.405,288.148 306.660,288.148 306.531 C 288.148 306.402,286.231 306.296,283.889 306.296 C 279.252 306.296,279.359 306.360,280.059 304.024 L 280.488 302.593 285.383 302.593 L 290.278 302.593 290.483 301.574 C 290.596 301.014,290.802 300.264,290.940 299.907 C 291.173 299.305,290.722 299.259,284.528 299.259 L 277.866 299.259 277.451 300.833 M119.786 307.500 L 120.045 309.259 117.986 309.259 C 115.518 309.259,115.533 309.339,117.500 306.661 C 119.226 304.311,119.321 304.346,119.786 307.500 " stroke="none" fill="#ccc" fill-rule="evenodd"></path><path id="path2" d="M220.503 240.944 C 208.199 243.644,200.162 254.537,200.846 267.585 C 202.464 298.450,245.236 300.394,250.406 269.838 C 253.362 252.368,237.646 237.182,220.503 240.944 M97.726 241.819 L 96.852 242.527 96.852 266.111 L 96.852 289.695 97.726 290.403 C 99.363 291.728,120.464 291.373,125.926 289.928 C 138.365 286.637,140.325 269.761,128.713 265.929 L 127.455 265.514 129.956 263.035 C 136.702 256.349,134.487 246.103,125.556 242.674 C 121.015 240.931,99.634 240.274,97.726 241.819 M147.685 241.627 C 146.682 242.388,146.682 289.834,147.685 290.596 C 148.628 291.311,150.523 291.225,151.239 290.434 C 152.233 289.335,152.172 242.627,151.175 241.724 C 150.365 240.992,148.587 240.942,147.685 241.627 M186.446 241.890 C 185.778 242.628,185.731 243.636,185.556 260.872 C 185.399 276.255,185.280 279.309,184.786 280.590 C 181.630 288.769,170.944 288.712,165.584 280.487 C 163.651 277.521,159.753 280.336,161.426 283.490 C 166.117 292.332,180.303 294.364,186.689 287.109 C 190.728 282.520,191.168 279.622,191.030 258.529 C 190.932 243.534,190.887 242.627,190.220 241.890 C 189.286 240.858,187.381 240.858,186.446 241.890 M260.947 241.934 C 259.523 243.968,260.269 274.651,261.853 279.175 C 267.401 295.021,292.197 296.236,299.201 281.005 C 301.155 276.756,301.221 276.091,301.369 259.074 C 301.524 241.162,301.552 241.380,299.122 241.179 C 296.193 240.937,296.297 240.333,296.291 257.557 C 296.285 274.049,296.141 275.565,294.206 279.521 C 289.803 288.519,274.009 289.344,268.602 280.858 C 265.859 276.554,265.790 276.036,265.569 258.297 C 265.410 245.535,265.268 242.212,264.862 241.723 C 264.080 240.781,261.663 240.912,260.947 241.934 M231.440 246.341 C 250.212 252.202,249.454 281.804,230.416 286.293 C 217.617 289.312,206.104 279.641,206.169 265.926 C 206.238 251.686,218.391 242.267,231.440 246.341 M123.880 247.593 C 130.463 250.982,130.001 259.127,123.044 262.341 C 121.413 263.094,120.647 263.156,111.574 263.263 L 101.852 263.378 101.852 254.815 L 101.852 246.252 111.787 246.367 L 121.722 246.481 123.880 247.593 M125.111 269.425 C 132.802 272.166,133.386 280.741,126.134 284.444 L 123.596 285.741 112.724 285.858 L 101.852 285.976 101.852 277.226 L 101.852 268.477 112.500 268.601 C 121.795 268.710,123.398 268.814,125.111 269.425 " stroke="none" fill="#fff" fill-rule="evenodd"></path><path id="path3" d="M103.062 87.867 C 88.952 101.971,77.407 113.680,77.407 113.886 C 77.407 114.092,104.739 141.591,138.144 174.996 L 198.881 235.732 259.621 174.996 C 293.027 141.591,320.362 114.109,320.365 113.925 C 320.372 113.462,270.006 63.177,269.006 62.649 C 268.403 62.331,250.415 62.222,198.457 62.222 L 128.716 62.222 103.062 87.867 M196.296 88.920 C 196.296 104.372,196.198 108.548,195.838 108.428 C 194.863 108.103,160.823 83.877,161.053 83.672 C 161.187 83.552,167.046 81.080,174.074 78.179 C 186.561 73.024,191.454 70.992,194.074 69.873 C 194.787 69.569,195.579 69.306,195.833 69.289 C 196.198 69.266,196.296 73.422,196.296 88.920 M205.973 70.888 C 208.086 71.784,215.731 74.969,222.963 77.966 C 230.194 80.962,236.237 83.530,236.390 83.671 C 236.543 83.812,233.127 86.432,228.797 89.492 C 224.468 92.552,216.653 98.085,211.430 101.787 C 206.208 105.490,201.833 108.519,201.708 108.519 C 201.583 108.519,201.481 99.685,201.481 88.889 C 201.481 77.862,201.624 69.259,201.807 69.259 C 201.986 69.259,203.861 69.992,205.973 70.888 M143.282 77.784 C 146.802 80.278,149.545 82.454,149.378 82.621 C 149.023 82.974,142.012 85.926,141.527 85.926 C 141.346 85.926,141.106 85.634,140.995 85.278 C 140.884 84.921,139.850 82.380,138.699 79.630 C 135.713 72.502,135.835 72.849,136.396 73.064 C 136.663 73.167,139.761 75.290,143.282 77.784 M261.307 73.670 C 260.616 75.848,256.328 85.730,256.032 85.829 C 255.445 86.024,248.087 82.805,248.215 82.409 C 248.346 82.000,260.747 73.019,261.229 72.985 C 261.395 72.973,261.430 73.281,261.307 73.670 M162.429 91.333 C 165.292 93.350,172.742 98.583,178.985 102.963 C 185.227 107.343,190.342 111.052,190.352 111.207 C 190.362 111.362,181.691 111.445,171.082 111.392 L 151.794 111.296 147.565 101.141 C 145.239 95.555,143.377 90.951,143.427 90.909 C 143.505 90.843,149.555 88.284,153.704 86.562 C 154.914 86.060,155.074 86.078,156.111 86.845 C 156.722 87.296,159.565 89.316,162.429 91.333 M248.408 88.499 C 251.368 89.711,253.880 90.794,253.991 90.905 C 254.103 91.016,253.512 92.733,252.679 94.720 C 249.559 102.162,247.446 107.274,246.822 108.889 C 246.469 109.806,246.018 110.764,245.822 111.019 C 245.403 111.562,207.407 111.710,207.407 111.168 C 207.407 110.995,209.116 109.671,211.204 108.225 C 213.292 106.780,221.083 101.267,228.519 95.975 C 235.954 90.683,242.260 86.341,242.532 86.325 C 242.805 86.309,245.449 87.288,248.408 88.499 M142.309 101.882 C 144.295 106.652,145.921 110.764,145.923 111.019 C 145.925 111.384,140.555 111.481,120.296 111.481 C 103.681 111.481,94.793 111.355,95.027 111.121 C 95.350 110.798,107.490 105.674,118.333 101.284 C 120.574 100.377,125.907 98.151,130.185 96.338 C 134.463 94.524,138.128 93.078,138.330 93.124 C 138.533 93.170,140.323 97.111,142.309 101.882 M272.045 98.345 C 279.170 101.305,288.955 105.347,293.789 107.327 C 298.624 109.306,302.582 111.051,302.586 111.204 C 302.590 111.356,291.186 111.481,277.244 111.481 C 263.302 111.481,251.820 111.356,251.727 111.204 C 251.569 110.945,258.771 92.963,259.031 92.963 C 259.064 92.963,264.920 95.385,272.045 98.345 M149.642 119.630 C 153.182 127.799,159.345 143.001,159.183 143.163 C 159.083 143.263,154.934 141.660,149.964 139.601 C 132.452 132.348,123.826 128.781,117.778 126.292 C 102.761 120.112,95.344 116.968,95.016 116.643 C 94.793 116.421,104.566 116.326,121.470 116.386 L 148.278 116.481 149.642 119.630 M243.340 116.759 C 243.345 117.100,232.793 142.991,232.392 143.620 C 232.274 143.807,205.556 116.904,205.556 116.598 C 205.556 116.432,214.056 116.296,224.444 116.296 C 239.305 116.296,243.335 116.395,243.340 116.759 M302.389 116.646 C 302.195 116.838,296.370 119.348,289.444 122.224 C 282.519 125.100,275.519 128.010,273.889 128.691 C 251.361 138.107,238.448 143.386,238.301 143.240 C 238.202 143.140,238.859 141.329,239.761 139.215 C 240.663 137.100,242.909 131.704,244.752 127.222 C 246.595 122.741,248.365 118.449,248.686 117.685 L 249.269 116.296 276.005 116.296 C 292.766 116.296,302.609 116.427,302.389 116.646 M178.897 130.177 C 171.469 137.607,165.285 143.566,165.156 143.418 C 164.948 143.180,156.572 123.030,154.767 118.426 L 154.077 116.667 173.240 116.667 L 192.404 116.667 178.897 130.177 M196.296 169.148 C 196.296 198.127,196.161 217.783,195.962 217.574 C 195.647 217.241,194.389 214.320,191.665 207.593 C 191.005 205.963,188.008 198.713,185.004 191.481 C 182.001 184.250,176.884 171.917,173.635 164.074 C 170.385 156.231,167.648 149.636,167.552 149.418 C 167.403 149.076,195.635 120.370,196.120 120.370 C 196.217 120.370,196.296 142.320,196.296 169.148 M230.000 149.084 C 230.000 149.399,222.441 167.815,215.029 185.556 C 214.135 187.694,210.982 195.278,208.022 202.407 C 205.062 209.537,202.386 215.954,202.075 216.667 C 201.565 217.837,201.509 213.206,201.496 169.076 L 201.481 120.189 215.741 134.444 C 223.583 142.285,230.000 148.873,230.000 149.084 M97.657 123.475 C 100.270 124.571,108.741 128.088,116.481 131.290 C 124.222 134.493,131.889 137.668,133.519 138.348 C 135.148 139.027,139.565 140.858,143.333 142.416 C 147.102 143.975,150.344 145.402,150.537 145.588 C 150.749 145.792,144.142 145.926,133.868 145.926 L 116.848 145.926 104.630 133.704 C 97.910 126.981,92.523 121.481,92.659 121.481 C 92.795 121.481,95.044 122.378,97.657 123.475 M304.815 121.618 C 304.815 121.693,299.460 127.109,292.914 133.655 L 281.014 145.556 263.933 145.541 C 248.239 145.528,246.957 145.480,248.148 144.957 C 249.902 144.186,265.753 137.605,269.444 136.115 C 276.010 133.465,301.394 122.895,302.778 122.234 C 304.256 121.529,304.815 121.360,304.815 121.618 M275.312 150.991 C 275.560 151.239,207.093 219.990,206.593 219.997 C 206.451 219.998,206.557 219.458,206.828 218.796 C 207.992 215.964,222.777 180.290,223.906 177.593 C 224.588 175.963,227.175 169.713,229.655 163.704 C 232.135 157.694,234.399 152.319,234.684 151.759 L 235.204 150.741 255.133 150.741 C 266.094 150.741,275.174 150.853,275.312 150.991 M163.313 152.500 C 163.588 153.264,164.683 155.972,165.746 158.519 C 168.232 164.470,171.949 173.434,177.416 186.667 C 179.815 192.472,183.877 202.292,186.444 208.488 C 189.011 214.684,191.062 219.802,191.002 219.862 C 190.943 219.921,175.402 204.477,156.466 185.540 L 122.039 151.111 142.426 151.111 L 162.814 151.111 163.313 152.500 " stroke="none" fill="#fff" fill-rule="evenodd"></path><path id="path4" d="M195.840 88.889 C 195.785 99.685,195.866 108.519,196.019 108.519 C 196.171 108.519,196.296 99.685,196.296 88.889 C 196.296 78.093,196.216 69.259,196.118 69.259 C 196.019 69.259,195.894 78.093,195.840 88.889 M207.654 110.617 C 207.519 110.753,207.407 111.003,207.407 111.173 C 207.407 111.343,216.032 111.441,226.574 111.392 L 245.741 111.303 226.739 111.204 C 214.308 111.139,207.817 110.977,207.965 110.737 C 208.222 110.321,208.026 110.245,207.654 110.617 M94.943 111.204 C 94.848 111.356,106.323 111.443,120.441 111.396 C 134.560 111.348,142.028 111.265,137.037 111.211 C 113.470 110.955,95.098 110.952,94.943 111.204 M151.724 111.204 C 151.948 111.567,190.370 111.567,190.370 111.204 C 190.370 111.051,181.636 110.926,170.961 110.926 C 160.286 110.926,151.629 111.051,151.724 111.204 M251.724 111.204 C 251.818 111.356,263.302 111.481,277.244 111.481 C 291.186 111.481,302.593 111.356,302.593 111.204 C 302.593 111.051,291.109 110.926,277.072 110.926 C 263.036 110.926,251.630 111.051,251.724 111.204 M94.886 116.491 C 95.131 116.736,147.846 116.722,148.091 116.477 C 148.190 116.377,136.216 116.296,121.481 116.296 C 106.747 116.296,94.779 116.384,94.886 116.491 M214.907 116.574 C 220.153 116.632,228.736 116.632,233.981 116.574 C 239.227 116.516,234.935 116.468,224.444 116.468 C 213.954 116.468,209.662 116.516,214.907 116.574 M249.131 116.574 C 248.975 116.826,268.086 116.823,293.148 116.567 C 298.444 116.513,290.746 116.430,276.040 116.382 C 261.335 116.335,249.226 116.421,249.131 116.574 M178.716 129.988 C 169.828 138.878,165.304 143.159,165.113 142.858 C 164.896 142.518,164.825 142.515,164.820 142.849 C 164.804 144.107,166.474 142.603,178.910 130.164 C 186.331 122.740,192.320 116.667,192.218 116.667 C 192.117 116.667,186.040 122.661,178.716 129.988 M195.836 168.924 C 195.784 195.629,195.866 217.555,196.019 217.650 C 196.171 217.744,196.296 195.895,196.296 169.096 C 196.296 142.297,196.214 120.370,196.114 120.370 C 196.013 120.370,195.888 142.220,195.836 168.924 M215.556 134.630 C 223.396 142.472,229.895 148.889,229.996 148.889 C 230.098 148.889,223.767 142.472,215.926 134.630 C 208.085 126.787,201.587 120.370,201.485 120.370 C 201.383 120.370,207.715 126.787,215.556 134.630 M94.074 123.079 C 94.074 123.143,94.616 123.684,95.278 124.283 L 96.481 125.370 95.394 124.167 C 94.380 123.045,94.074 122.793,94.074 123.079 M98.148 127.153 C 98.148 127.217,98.690 127.758,99.352 128.357 L 100.556 129.444 99.468 128.241 C 98.454 127.119,98.148 126.867,98.148 127.153 M106.667 135.671 C 106.667 135.735,107.208 136.277,107.870 136.875 L 109.074 137.963 107.986 136.759 C 106.972 135.637,106.667 135.385,106.667 135.671 M110.741 139.746 C 110.741 139.809,111.282 140.351,111.944 140.949 L 113.148 142.037 112.060 140.833 C 111.046 139.711,110.741 139.459,110.741 139.746 M115.717 144.722 L 116.805 145.926 133.835 145.926 C 143.201 145.926,150.774 145.836,150.664 145.726 C 150.554 145.616,142.914 145.536,133.686 145.548 L 116.907 145.570 115.769 144.544 L 114.630 143.519 115.717 144.722 M255.147 151.018 L 275.294 151.118 274.592 151.948 L 273.889 152.778 274.713 152.080 C 276.224 150.802,275.253 150.740,255.071 150.830 L 235.000 150.919 255.147 151.018 M156.466 185.448 C 175.401 204.435,190.985 219.871,191.095 219.749 C 191.206 219.628,191.087 219.453,190.831 219.362 C 190.575 219.271,190.477 219.002,190.613 218.765 C 190.748 218.527,190.715 218.465,190.538 218.626 C 190.361 218.787,174.876 203.621,156.127 184.922 L 122.037 150.926 156.466 185.448 M264.256 162.315 L 257.222 169.444 264.352 162.411 C 268.273 158.543,271.481 155.334,271.481 155.281 C 271.481 155.018,270.790 155.691,264.256 162.315 M247.589 178.981 L 240.556 186.111 247.685 179.078 C 251.606 175.209,254.815 172.001,254.815 171.948 C 254.815 171.685,254.124 172.357,247.589 178.981 M230.922 195.648 L 223.889 202.778 231.019 195.744 C 234.940 191.876,238.148 188.668,238.148 188.615 C 238.148 188.351,237.457 189.024,230.922 195.648 M214.256 212.315 L 207.222 219.444 214.352 212.411 C 218.273 208.543,221.481 205.334,221.481 205.281 C 221.481 205.018,220.790 205.691,214.256 212.315 " stroke="none" fill="#fff" fill-rule="evenodd"></path></g></svg>